<svg width="289" height="61" viewBox="0 0 289 61" fill="none" xmlns="http://www.w3.org/2000/svg">
<path d="M36.9489 10.68C39.5069 8.15222 43.6544 8.15222 46.2124 10.68C48.7703 13.2079 48.7703 17.3066 46.2124 19.8344L17.5333 48.1753C17.5333 48.1753 16.3727 44.1342 14.2043 41.9914C12.036 39.8485 8.27051 39.0215 8.27051 39.0215L36.9489 10.68Z" fill="white"/>
<ellipse cx="42.9695" cy="43.2737" rx="6.9754" ry="6.89329" fill="#00A200"/>
<path d="M279.59 15.0366H288.533L276.401 35.986V45.3174H267.021V35.986L254.452 15.0366H264.332L271.273 28.3231H272.399L279.59 15.0366Z" fill="white"/>
<path d="M252.641 22.5141H237.008V29.0029H249.702V36.0478H237.008V45.3174H228.378V15.0366H252.641V22.5141Z" fill="white"/>
<path d="M210.048 45.3174L209.86 15.0366H219.49L219.365 45.3174H210.048Z" fill="white"/>
<path d="M195.092 45.3174L187.9 34.6882H183.835V45.3174H174.455V15.0366H183.835V26.7782H187.462L193.653 14.9748L204.159 15.0366L194.591 29.6826L205.722 45.3174H195.092Z" fill="white"/>
<path d="M154.078 45.75C150.242 45.75 146.595 44.7612 143.134 42.7837L145.698 36.7275C148.366 38.0047 150.868 38.6433 153.202 38.6433C156.621 38.6433 158.33 37.8193 158.33 36.1714C158.33 35.5122 157.976 35.0384 157.267 34.75C156.6 34.4616 155.349 34.132 153.515 33.7613C146.511 32.7313 143.009 29.6208 143.009 24.4299C143.009 21.0928 144.135 18.6003 146.386 16.9524C148.637 15.3044 151.702 14.4805 155.579 14.4805C159.456 14.4805 162.958 15.3868 166.084 17.1996L163.645 23.3175C161.436 22.2051 158.976 21.6284 156.267 21.5872C154.682 21.546 153.432 21.752 152.514 22.2051C151.639 22.6171 151.201 23.1939 151.201 23.9355C151.201 24.6358 151.535 25.1508 152.202 25.4804C152.869 25.81 154.078 26.1808 155.829 26.5928C159.914 27.4579 162.77 28.5291 164.396 29.8062C166.063 31.0834 166.897 33.0197 166.897 35.6152C166.897 37.4691 166.501 39.0964 165.709 40.4972C164.917 41.8567 163.854 42.9073 162.52 43.6489C161.186 44.3904 159.81 44.926 158.393 45.2556C157.017 45.5852 155.579 45.75 154.078 45.75Z" fill="white"/>
<path d="M131.57 45.3174L129.193 39.1994H114.998L112.685 45.3174H104.243L115.999 15.0366H128.568L140.575 45.3174H131.57ZM117.5 32.7725H126.63L122.19 21.34H121.94L117.5 32.7725Z" fill="white"/>
<path d="M104.591 15.0366V22.3905H95.7111V45.3174H86.1435V22.3905H77.2012V15.0366H104.591Z" fill="white"/>
</svg>
