<svg width="340" height="87" viewBox="0 0 340 87" fill="none" xmlns="http://www.w3.org/2000/svg">
<path d="M61.3283 24.0648C63.8862 21.537 68.0338 21.537 70.5918 24.0648C73.1497 26.5926 73.1497 30.6914 70.5918 33.2192L41.9127 61.56C41.9127 61.56 40.7521 57.519 38.5837 55.3761C36.4154 53.2333 32.6499 52.4063 32.6499 52.4063L61.3283 24.0648Z" fill="white"/>
<ellipse cx="67.3489" cy="56.6584" rx="6.9754" ry="6.89329" fill="#00A200"/>
<path d="M303.97 28.4214H312.912L300.781 49.3707V58.7022H291.401V49.3707L278.831 28.4214H288.712L295.653 41.7079H296.778L303.97 28.4214Z" fill="white"/>
<path d="M277.021 35.8989H261.387V42.3876H274.082V49.4325H261.387V58.7022H252.758V28.4214H277.021V35.8989Z" fill="white"/>
<path d="M234.427 58.7022L234.24 28.4214H243.87L243.745 58.7022H234.427Z" fill="white"/>
<path d="M219.471 58.7022L212.28 48.073H208.215V58.7022H198.835V28.4214H208.215V40.1629H211.842L218.033 28.3596L228.538 28.4214L218.971 43.0674L230.102 58.7022H219.471Z" fill="white"/>
<path d="M178.457 59.1347C174.622 59.1347 170.974 58.146 167.514 56.1685L170.078 50.1123C172.746 51.3895 175.247 52.028 177.582 52.028C181 52.028 182.71 51.2041 182.71 49.5561C182.71 48.897 182.355 48.4232 181.646 48.1348C180.979 47.8464 179.729 47.5168 177.894 47.146C170.891 46.1161 167.389 43.0056 167.389 37.8146C167.389 34.4776 168.514 31.9851 170.766 30.3371C173.017 28.6892 176.081 27.8652 179.958 27.8652C183.835 27.8652 187.337 28.7716 190.464 30.5843L188.025 36.7023C185.815 35.5899 183.356 35.0131 180.646 34.9719C179.062 34.9307 177.811 35.1367 176.894 35.5899C176.018 36.0019 175.581 36.5787 175.581 37.3202C175.581 38.0206 175.914 38.5356 176.581 38.8652C177.248 39.1948 178.457 39.5655 180.208 39.9775C184.294 40.8427 187.149 41.9138 188.775 43.191C190.443 44.4681 191.277 46.4045 191.277 49C191.277 50.8539 190.881 52.4812 190.088 53.8819C189.296 55.2415 188.233 56.292 186.899 57.0336C185.565 57.7752 184.189 58.3108 182.772 58.6404C181.396 58.9699 179.958 59.1347 178.457 59.1347Z" fill="white"/>
<path d="M155.949 58.7022L153.573 52.5842H139.378L137.064 58.7022H128.622L140.378 28.4214H152.947L164.954 58.7022H155.949ZM141.879 46.1573H151.009L146.569 34.7247H146.319L141.879 46.1573Z" fill="white"/>
<path d="M128.97 28.4214V35.7753H120.09V58.7022H110.523V35.7753H101.581V28.4214H128.97Z" fill="white"/>
</svg>
